# xmcd CD database file
#
# Track frame offsets:
#	150
#	6511
#	16036
#	30855
#	34573
#	41281
#	42991
#	51329
#	55864
#	59694
#	68986
#	79075
#	85027
#	88510
#	99109
#	120238
#	138544
#	148645
#	151115
#	162674
#	164354
#	172929
#	184929
#	189519
#	194838
#	199955
#	202341
#	204750
#	214042
#	217470
#	224977
#	225578
#	226261
#	227650
#	230506
#	235470
#	241731
#	245859
#	252741
#	259547
#	266991
#	273885
#	282526
#
# Disc length: 3935 seconds
#
# Revision: 0
# Processed by: cddbd v1.5.2PL0 Copyright (c) Steve Scherf et al.
# Submitted via: CDex 1.70beta2
#
DISCID=7f0f5d2b
DTITLE=Various Artist - the CYBER KILLERS COMPILATION
DYEAR=2004
DGENRE=Porno,Gore,ElectronicGrind
TTITLE0=Orgazmatron - Intergalactic Bondage Warafare
TTITLE1=Libido Airbag -Cum Filled Wonder Bra
TTITLE2=Basket Of Death - Rape Man Otaku Force VS Ice Cream Girls
TTITLE3=Electrocutionerds - Regenerated
TTITLE4=Electrocutionerds - Math
TTITLE5=Your Third Eye Is a Bullet Wound - Never Tasted
TTITLE6=Enema Cooktail - Chastise
TTITLE7=50 Ways To Kill Me - Beat Me Unmercyful
TTITLE8=Flattened Feculent Formaldehyde Fetus - I Fit In
TTITLE9=Fuck The Facts - Whisper Dependancy (Video Game Version)
TTITLE10=She's Gore - Urethral Orificial Sodomy
TTITLE11=Harmorr Drench - Insides Out
TTITLE12=Imbibing Bile - Schizophrenic Shroom Slut
TTITLE13=Intense Soaked Cloth - Akienation Of An Anal Abcess
TTITLE14=Mindfucking Boy - Jamming With Naked Babes
TTITLE15=Gynophagia - Synthetic Vagina Splicer
TTITLE16=Noism - Ismism
TTITLE17=Bukkake Master - Untitled (From Session On 4-Way Fetish)
TTITLE18=S.M.E.S. - When Sgt. Gomp Charges
TTITLE19=Parasympathomimetic Thrombophlebitis - Seu Madruga
TTITLE20=Shunt Incision - Cunt Ov Concrete
TTITLE21=Garotte - Returned Corpse
TTITLE22=Shotgun Funeral - Corpse In My Car
TTITLE23=Shotgun Funeral - The Decapitated Hookers Belong In The Basement Beside The Limbless Babies
TTITLE24=Muder 2099 - Dissected Alive
TTITLE25=Fece - Vomitetie
TTITLE26=Fece - Both Untitled
TTITLE27=Red Hot Piggys Pussys - Semen Radioactivo
TTITLE28=Ultrabused Orifice - Vulva Desacration
TTITLE29=Smothered Brothers - Zoowhoopie
TTITLE30=Princess Army Wedding Combat - 可愛い (二番)
TTITLE31=Princess Army Wedding Combat - Splitting The Atom With Nymphomaniac Cat Girls
TTITLE32=Princess Army Wedding Combat - Cotton Candy Cage
TTITLE33=Ayer Killing Spree - Virulent Sperm
TTITLE34=Gigantic Brain - The Human Mind, The Panic, The Ear Drain, Your Last Thought
TTITLE35=Abiku - Dead Air
TTITLE36=Fibrosarcoma - Neuritic Atrophy
TTITLE37=Cranial Rectosis - Now My Finger Is Brown
TTITLE38=Savage Man Svage Beast - In Every Scheme There Is A Team
TTITLE39=Savage Man Svage Beast - We Have Arrived
TTITLE40=Lymphatic Phlegm - Chronic Epidermic Necrolysis (Multifoem Erythema)
TTITLE41=Eyetofuk - Cuntslap
TTITLE42=Absurd God - Sad Joke (C99 Mix)
EXTD=YEAR: 2004
EXTT0=
EXTT1=
EXTT2=
EXTT3=
EXTT4=
EXTT5=
EXTT6=
EXTT7=
EXTT8=
EXTT9=
EXTT10=
EXTT11=
EXTT12=
EXTT13=
EXTT14=
EXTT15=
EXTT16=
EXTT17=
EXTT18=
EXTT19=
EXTT20=
EXTT21=
EXTT22=
EXTT23=
EXTT24=
EXTT25=
EXTT26=
EXTT27=
EXTT28=
EXTT29=
EXTT30=
EXTT31=
EXTT32=
EXTT33=
EXTT34=
EXTT35=
EXTT36=
EXTT37=
EXTT38=
EXTT39=
EXTT40=
EXTT41=
EXTT42=
PLAYORDER=
